<?xml version="1.0" encoding="iso-8859-1"?>
<!-- Generator: Adobe Illustrator 19.0.0, SVG Export Plug-In . SVG Version: 6.00 Build 0)  -->
<svg version="1.1" id="Capa_1" xmlns="http://www.w3.org/2000/svg" xmlns:xlink="http://www.w3.org/1999/xlink" x="0px" y="0px"
	 viewBox="0 0 512 512" style="enable-background:new 0 0 512 512;" xml:space="preserve">
<circle style="fill:#4482C3;" cx="256" cy="256" r="256"/>
<g>
	<path style="fill:#24AE5F;" d="M269.18,248.576c-25.803,11.785-58.403,2.525-72.898-23.861
		c-13.647-24.858-36.387-30.508-36.387-30.508c-96.477-29.952-74.293-43.644-50.07-49.346c10.575-2.489,21.522-3.293,32.38-2.745
		c54.952,2.807,71-45.012,71-45.012c8.254-24.611-21.813-79.642-26.112-87.314C99.505,34.516,30.888,104.042,8.095,191.912
		c22.528,13.621,45.162,11.123,45.162,11.123c57.379,0,62.658,63.276,62.552,87.667c-0.044,11.441,0.909,22.89,3.452,34.048
		c16.199,70.912,67.284,63.665,67.284,63.665c17.399,0,32.45-9.913,39.742-24.364c6.647-13.18,16.728-24.126,29.113-32.177
		c34.251-22.254,37.853-51.359,35.231-71.15C289.289,250.659,278.466,244.33,269.18,248.576z"/>
	<path style="fill:#24AE5F;" d="M512,255.506c0-23.164-3.09-45.594-8.792-66.94c-56.682,7.742-85.486-1.43-97.713-7.751
		c-9.039-4.679-19.756-5.95-28.946-1.571c-13.409,6.4-27.304,23.393-22.457,67.407c0,0,5.42,32.786,41.781,51.138
		c18.07,9.119,27.833,28.928,23.305,48.79c-6.065,26.598-6.285,61.59,22.59,85.919C485.252,386.445,512,324.149,512,255.506z"/>
	<path style="fill:#24AE5F;" d="M358.947,21.61l-5.844,4.873c-20.727,16.207-44.57,39.715-32.3,63.373
		c0,0,24.011,27.56,55.843,7.733c6.118-3.814,11.061-9.19,15.387-14.954c3.716-4.952,10.725-12.632,22.863-20.842l4.696-2.684
		C401.355,43.935,380.954,31.294,358.947,21.61z"/>
	<path style="fill:#24AE5F;" d="M256,512c20.356,0,40.139-2.445,59.127-6.938c-6.718-14.036-10.567-28.999-12.659-42.24
		c-3.584-22.66-23.526-39.097-46.468-39.097c-39.036,0-70.621,31.585-70.621,70.621l-0.83,7.477
		C207.236,508.398,231.186,512,256,512z"/>
</g>
<g>
</g>
<g>
</g>
<g>
</g>
<g>
</g>
<g>
</g>
<g>
</g>
<g>
</g>
<g>
</g>
<g>
</g>
<g>
</g>
<g>
</g>
<g>
</g>
<g>
</g>
<g>
</g>
<g>
</g>
</svg>
