<?xml version="1.0" encoding="utf-8"?>
<!-- Generator: Adobe Illustrator 24.0.1, SVG Export Plug-In . SVG Version: 6.00 Build 0)  -->
<svg version="1.1" id="Layer_1" xmlns="http://www.w3.org/2000/svg" xmlns:xlink="http://www.w3.org/1999/xlink" x="0px" y="0px"
	 viewBox="0 0 801 2614" style="enable-background:new 0 0 801 2614;" xml:space="preserve">
<style type="text/css">
	.st0{fill:url(#SVGID_1_);stroke:#231F20;stroke-miterlimit:10;}
	.st1{fill:#FFFFFF;}
	.st2{fill:none;stroke:#FFFFFF;stroke-miterlimit:10;}
	.st3{fill:#C1BCBD;stroke:#C1BCBD;stroke-miterlimit:10;}
	.st4{fill:#C1BCBD;stroke:#FFFFFF;stroke-width:3;stroke-miterlimit:10;}
	.st5{fill:#FFFFFF;stroke:#FFFFFF;stroke-miterlimit:10;}
	.st6{fill:url(#SVGID_2_);}
	.st7{fill:url(#SVGID_3_);}
	.st8{fill:url(#SVGID_4_);}
</style>
<title>SpaceBackground</title>
<linearGradient id="SVGID_1_" gradientUnits="userSpaceOnUse" x1="400.5" y1="-2796.3145" x2="400.5" y2="-3557.5" gradientTransform="matrix(1 0 0 1 0 3558)">
	<stop  offset="0" style="stop-color:#3D3D3D"/>
	<stop  offset="1" style="stop-color:#000000"/>
</linearGradient>
<rect x="0.5" y="0.5" class="st0" width="800" height="761.2"/>
<g>
	<g>
		
			<image style="overflow:visible;enable-background:new    ;" width="870" height="871" xlink:href="5CDE3F15C0447DA0.png"  transform="matrix(0.9989 0 0 0.9989 -34.016 346.9846)">
		</image>
		<g>
			<circle class="st1" cx="400.5" cy="781.7" r="400"/>
			<circle class="st2" cx="400.5" cy="781.7" r="400"/>
		</g>
	</g>
	<path class="st3" d="M242,414.3L242,414.3C99.9,475.7,0.5,617.1,0.5,781.7c0,220.9,179.1,400,400,400
		C27.9,832.6,242,414.3,242,414.3z"/>
	<circle class="st3" cx="354.2" cy="549.3" r="46.3"/>
	<circle class="st4" cx="221.1" cy="736.7" r="71"/>
	<circle class="st4" cx="245.1" cy="1007.8" r="44.6"/>
	
		<ellipse transform="matrix(0.1602 -0.9871 0.9871 0.1602 -254.286 1174.5227)" class="st3" cx="563.1" cy="736.7" rx="35.5" ry="35.5"/>
	<circle class="st3" cx="572.8" cy="593.6" r="9.7"/>
	<circle class="st3" cx="618.3" cy="963.1" r="9.7"/>
	<circle class="st3" cx="530.9" cy="1021.5" r="9.7"/>
	<circle class="st3" cx="457.2" cy="441.4" r="12.4"/>
</g>
<rect x="3.3" y="761.7" class="st5" width="797.2" height="797.2"/>
<linearGradient id="SVGID_2_" gradientUnits="userSpaceOnUse" x1="221.1979" y1="1062.7629" x2="221.1979" y2="760.6854">
	<stop  offset="0" style="stop-color:#FFFFFF"/>
	<stop  offset="1" style="stop-color:#C1BCBD"/>
</linearGradient>
<rect x="156.3" y="760.7" class="st6" width="129.8" height="302.1"/>
<linearGradient id="SVGID_3_" gradientUnits="userSpaceOnUse" x1="76.3178" y1="1062.7629" x2="76.3178" y2="760.6854">
	<stop  offset="0" style="stop-color:#FFFFFF"/>
	<stop  offset="1" style="stop-color:#C1BCBD"/>
</linearGradient>
<rect y="760.7" class="st7" width="152.6" height="302.1"/>
<linearGradient id="SVGID_4_" gradientUnits="userSpaceOnUse" x1="563.3705" y1="1062.7629" x2="563.3705" y2="760.6854">
	<stop  offset="0" style="stop-color:#FFFFFF"/>
	<stop  offset="1" style="stop-color:#C1BCBD"/>
</linearGradient>
<rect x="536.7" y="760.7" class="st8" width="53.4" height="302.1"/>
</svg>
