<svg id="Layer_1" data-name="Layer 1" xmlns="http://www.w3.org/2000/svg" xmlns:xlink="http://www.w3.org/1999/xlink" viewBox="0 0 869.04 1559.4"><defs><style>.cls-1{stroke:#231f20;fill:url(#linear-gradient);}.cls-1,.cls-12,.cls-13,.cls-14,.cls-15,.cls-16,.cls-17,.cls-18,.cls-20,.cls-21,.cls-4,.cls-5,.cls-6,.cls-8{stroke-miterlimit:10;}.cls-2{isolation:isolate;}.cls-3,.cls-8{fill:#fff;}.cls-12,.cls-17,.cls-18,.cls-20,.cls-21,.cls-4{fill:none;}.cls-16,.cls-17,.cls-4,.cls-6,.cls-8{stroke:#fff;}.cls-5,.cls-6,.cls-7{fill:#c1bcbd;}.cls-5,.cls-7{stroke:#c1bcbd;}.cls-12,.cls-6{stroke-width:3px;}.cls-7{stroke-miterlimit:10;}.cls-9{fill:url(#linear-gradient-2);}.cls-10{fill:url(#linear-gradient-3);}.cls-11{fill:url(#linear-gradient-4);}.cls-12,.cls-21{stroke:#000;}.cls-13{fill:#e08b19;stroke:#e08b19;}.cls-14,.cls-19{fill:#f7e4cb;}.cls-14,.cls-18,.cls-20{stroke:#f7e4cb;}.cls-15{fill:#f7a328;stroke:#f7a328;}.cls-16{fill:#54300a;}.cls-17,.cls-18{stroke-width:10px;}.cls-21{stroke-width:4px;}</style><linearGradient id="linear-gradient" x1="400.5" y1="5408.19" x2="400.5" y2="6169.39" gradientTransform="matrix(1, 0, 0, -1, 34.02, 6169.89)" gradientUnits="userSpaceOnUse"><stop offset="0" stop-color="#3d3d3d"/><stop offset="1"/></linearGradient><linearGradient id="linear-gradient-2" x1="221.2" y1="1549.09" x2="221.2" y2="1851.19" gradientTransform="matrix(1, 0, 0, -1, 34.02, 2611.89)" gradientUnits="userSpaceOnUse"><stop offset="0" stop-color="#fff"/><stop offset="1" stop-color="#c1bcbd"/></linearGradient><linearGradient id="linear-gradient-3" x1="76.3" y1="1549.09" x2="76.3" y2="1851.19" xlink:href="#linear-gradient-2"/><linearGradient id="linear-gradient-4" x1="563.4" y1="1549.09" x2="563.4" y2="1851.19" xlink:href="#linear-gradient-2"/></defs><title>SpaceBackgroundPelican</title><rect class="cls-1" x="34.52" y="0.5" width="800" height="761.2"/><image class="cls-2" width="870" height="871" transform="translate(0 346.98)" xlink:href="5CDE3F15C0447DA0.png"/><circle class="cls-3" cx="434.52" cy="781.7" r="400"/><circle class="cls-4" cx="434.52" cy="781.7" r="400"/><path class="cls-5" d="M242,414.3h0C99.9,475.7.5,617.1.5,781.7c0,220.9,179.1,400,400,400C27.9,832.6,242,414.3,242,414.3Z" transform="translate(34.02 0)"/><circle class="cls-5" cx="388.22" cy="549.3" r="46.3"/><circle class="cls-6" cx="255.12" cy="736.7" r="71"/><circle class="cls-6" cx="279.12" cy="1007.8" r="44.6"/><circle class="cls-7" cx="597.14" cy="736.71" r="35.5"/><circle class="cls-5" cx="606.82" cy="593.6" r="9.7"/><circle class="cls-5" cx="652.32" cy="963.1" r="9.7"/><circle class="cls-5" cx="564.92" cy="1021.5" r="9.7"/><circle class="cls-5" cx="491.22" cy="441.4" r="12.4"/><rect class="cls-8" x="37.32" y="761.7" width="797.2" height="797.2"/><rect class="cls-9" x="190.32" y="760.7" width="129.8" height="302.1"/><rect class="cls-10" x="34.02" y="760.7" width="152.6" height="302.1"/><rect class="cls-11" x="570.72" y="760.7" width="53.4" height="302.1"/><line class="cls-12" x1="448.21" y1="352.84" x2="448.35" y2="384.97"/><line class="cls-12" x1="443.76" y1="348.07" x2="443.91" y2="380.19"/><path class="cls-13" d="M379.87,274.9c-.12.44-2.54,3.12-7.25,6.56S361,288.8,352.7,288.61c-8.28.19-15.24-3.86-19.91-7.15s-7.14-6.12-7.26-6.56,2.88-.36,7.84-.94,11.88-1.63,19.33-1.54c7.45-.09,14.4,1.1,19.33,1.54S379.94,274.37,379.87,274.9Z" transform="translate(34.02 0)"/><path class="cls-13" d="M379.87,274.9c-.12.44-2.54,3.12-7.25,6.56s-11.63,7.33-19.92,7.15c-8.28.18-15.24-3.86-19.91-7.15s-7.14-6.12-7.26-6.56,2.88-.36,7.84-.94,11.88-1.63,19.33-1.54c7.45-.09,14.4,1.1,19.33,1.54S379.94,274.37,379.87,274.9Z" transform="translate(34.02 0)"/><circle class="cls-14" cx="415.02" cy="265.6" r="11.15"/><path class="cls-15" d="M377.36,265.84c.41,4.67-5.17,10.2-7.06,10.52s-44.48,3.63-44.9-1,41.5-15.56,43.39-15.88S376.94,261.18,377.36,265.84Z" transform="translate(34.02 0)"/><circle class="cls-16" cx="405.35" cy="264.57" r="2.67"/><path class="cls-17" d="M385.83,269.64c4.32,5.39,7.15,12.7,6.11,20.35a23.91,23.91,0,0,1-1.64,5.56,12.73,12.73,0,0,1-6.86,6.78,14.59,14.59,0,0,0-3.58,1.22c-.44.35-.89.52-1.34.87a14.34,14.34,0,0,0-3.28,3.65,19.88,19.88,0,0,0-2.68,9.22c-.45,6.78,2.39,13.21,6.26,18.25" transform="translate(34.02 0)"/><path class="cls-18" d="M385.83,269.64c4.32,5.39,7.15,12.7,6.11,20.35a23.91,23.91,0,0,1-1.64,5.56,12.73,12.73,0,0,1-6.86,6.78,14.59,14.59,0,0,0-3.58,1.22c-.44.35-.89.52-1.34.87a14.34,14.34,0,0,0-3.28,3.65,19.88,19.88,0,0,0-2.68,9.22c-.45,6.78,2.39,13.21,6.26,18.25" transform="translate(34.02 0)"/><path class="cls-19" d="M437.28,340.21c.12,10.23-14.21,17.1-31.7,13.64-17.48-4.47-31.67-10.46-31.58-13.64s13.51-16.9,31.7-21.23C423.88,315.38,437.27,330.12,437.28,340.21Z" transform="translate(34.02 0)"/><path class="cls-20" d="M437.28,340.21c.12,10.23-14.21,17.1-31.7,13.64-17.48-4.47-31.67-10.46-31.58-13.64s13.51-16.9,31.7-21.23C423.88,315.38,437.27,330.12,437.28,340.21Z" transform="translate(34.02 0)"/><path class="cls-19" d="M442.65,325.7a13.57,13.57,0,0,1-2.93,7.55c-2.77,3.65-8.89,6.82-14.73,5.28-12-2.9-15-13.62-13-13.8,1.83-.45,7.59,2.55,13.28,1.78C429.9,327.11,442,326.62,442.65,325.7Z" transform="translate(34.02 0)"/><path class="cls-20" d="M442.65,325.7a13.57,13.57,0,0,1-2.93,7.55c-2.77,3.65-8.89,6.82-14.73,5.28-12-2.9-15-13.62-13-13.8,1.83-.45,7.59,2.55,13.28,1.78C429.9,327.11,442,326.62,442.65,325.7Z" transform="translate(34.02 0)"/><path class="cls-19" d="M443.33,331.13a13.56,13.56,0,0,1-2.93,7.54c-2.77,3.66-8.88,6.83-14.73,5.29-12-2.9-15-13.63-13-13.81,1.83-.44,7.58,2.56,13.28,1.78C430.58,332.54,442.63,332,443.33,331.13Z" transform="translate(34.02 0)"/><path class="cls-20" d="M443.33,331.13a13.56,13.56,0,0,1-2.93,7.54c-2.77,3.66-8.88,6.83-14.73,5.29-12-2.9-15-13.63-13-13.81,1.83-.44,7.58,2.56,13.28,1.78C430.58,332.54,442.63,332,443.33,331.13Z" transform="translate(34.02 0)"/><path d="M414.08,386.65c-2,1.12-4.57-.47-7.45-.83-3-.73-6.06,1.12-6.77.83-.92-.15,1.16-5.79,7.45-6.41S416.26,385.67,414.08,386.65Z" transform="translate(34.02 0)"/><path class="cls-21" d="M414.08,386.65c-2,1.12-4.57-.47-7.45-.83-3-.73-6.06,1.12-6.77.83-.92-.15,1.16-5.79,7.45-6.41S416.26,385.67,414.08,386.65Z" transform="translate(34.02 0)"/></svg>