<svg xmlns="http://www.w3.org/2000/svg" viewBox="0 0 120.27 136.99">
  <defs>
    <style>
      .cls-1 {
        fill: #f6a316;
        stroke: #f6a316;
      }

      .cls-1, .cls-2 {
        stroke-miterlimit: 10;
        stroke-width: 8px;
      }

      .cls-2 {
        fill: none;
        stroke: #1d1d1b;
      }
    </style>
  </defs>
  <g id="Layer_2" data-name="Layer 2">
    <g id="Layer_1-2" data-name="Layer 1">
      <path class="cls-1" d="M39.31,14a19.12,19.12,0,0,0,5-.29c2.5-.61,4.63-2.2,6.81-3.58a37.2,37.2,0,0,1,17.33-6A25.94,25.94,0,0,1,85.91,9c4.63,3.56,8,9,13.37,11.12,3.71,1.47,8,1.23,11.42,3.36,5.56,3.5,5.86,11.34,5.44,17.89q-1.26,19.88-3.62,39.67c-.23,2-.52,4-1.75,5.6-1.58,2-4.36,2.67-6.92,2.7s-5.14-.41-7.67,0C88.88,90.44,84.31,98,82.73,105.2S81.49,120,78.91,127a9.35,9.35,0,0,1-2.7,4.23c-1.79,1.4-4.22,1.6-6.49,1.68a152.17,152.17,0,0,1-15.84-.2,18.68,18.68,0,0,1-7.45-1.58c-4.63-2.38-6.69-8.06-6.62-13.26s1.82-10.23,2.87-15.33a17.89,17.89,0,0,0,.13-8.57c-1.76-6-8.34-9.17-14.47-10.37s-12.67-1.21-18.2-4.11a11.62,11.62,0,0,1-4.29-3.57c-2-2.88-1.92-6.64-1.8-10.13.46-13.56,1-27.58,7-39.74,2.26-4.59,5.72-9.54,10.57-11.67S34,13.8,39.31,14Z"/>
      <text/>      <path class="cls-2" d="M18.66,76.33c28.6-.63,57.37-1.25,85.67,2.73,1.43-3.61,1.46-7.56,1.47-11.42l0-18.67,0-14.78a1.15,1.15,0,0,0-.15-.69,1.3,1.3,0,0,0-.91-.39q-40-5.85-80.4-8.19a2,2,0,0,0-1.44.29,1.68,1.68,0,0,0-.43,1.12C21.92,31.49,16.1,76.33,18.66,76.33Z"/>
      <path class="cls-2" d="M57.78,23.72A33.59,33.59,0,0,0,58,18.23a4.88,4.88,0,0,1,5.6-4.79q4.67.51,9.35.87a5.57,5.57,0,0,1,5.34,6,67.9,67.9,0,0,0,.36,7.53"/>
      <path class="cls-2" d="M57.8,78.73q-3.09,19.41-5.13,38.94a5.92,5.92,0,0,0,6.5,6.28c2.71-.19,5.49-.68,8.07-.61A5.93,5.93,0,0,0,73.38,118q1.47-20.67,1.21-41.41"/>
    </g>
  </g>
</svg>
