<svg xmlns="http://www.w3.org/2000/svg" viewBox="0 0 402.05 118.55">
  <defs>
    <style>
      .cls-1 {
        font-size: 58px;
        fill: #283c6c;
        font-family: PantonDemo-Black, Panton;
        font-weight: 800;
      }

      .cls-2 {
        fill: none;
        stroke: #283c6c;
        stroke-miterlimit: 10;
        stroke-width: 8px;
      }
    </style>
  </defs>
  <g id="Layer_2" data-name="Layer 2">
    <g id="Layer_1-2" data-name="Layer 1">
      <text class="cls-1" transform="translate(110.66 91.8) scale(1.05 1)">TechstiK</text>
      <g>
        <text/>        <path class="cls-2" d="M4.65,66.92c28.6-.63,57.37-1.25,85.66,2.73,1.43-3.61,1.46-7.57,1.47-11.42l0-18.67,0-14.78a1.15,1.15,0,0,0-.14-.69,1.32,1.32,0,0,0-.91-.39q-40-5.85-80.4-8.19A2,2,0,0,0,9,15.8a1.73,1.73,0,0,0-.43,1.12C7.91,22.08,2.09,66.92,4.65,66.92Z"/>
        <path class="cls-2" d="M43.76,14.31A32.51,32.51,0,0,0,44,8.82,4.89,4.89,0,0,1,49.59,4q4.66.51,9.35.87a5.58,5.58,0,0,1,5.35,6,67.88,67.88,0,0,0,.35,7.53"/>
        <path class="cls-2" d="M43.79,69.32q-3.1,19.41-5.14,38.94a5.92,5.92,0,0,0,6.5,6.28c2.72-.19,5.49-.68,8.07-.61a5.93,5.93,0,0,0,6.14-5.37q1.48-20.67,1.21-41.41"/>
      </g>
    </g>
  </g>
</svg>
