<svg xmlns="http://www.w3.org/2000/svg" viewBox="0 0 474 763.64">
  <defs>
    <style>
      .cls-1 {
        fill: #fecb37;
      }

      .cls-1, .cls-2 {
        stroke: #fecb37;
      }

      .cls-1, .cls-2, .cls-3, .cls-4, .cls-5, .cls-7 {
        stroke-miterlimit: 10;
      }

      .cls-2 {
        fill: #ffd460;
      }

      .cls-3, .cls-6 {
        fill: #e71d73;
      }

      .cls-3, .cls-4, .cls-6 {
        stroke: #e71d73;
      }

      .cls-4 {
        fill: #e9427d;
      }

      .cls-5 {
        font-size: 131px;
      }

      .cls-5, .cls-7 {
        fill: #1d1d1b;
        stroke: #1d1d1b;
        font-family: Graphik-Super, Graphik;
      }

      .cls-6 {
        letter-spacing: 0.02em;
      }

      .cls-7 {
        font-size: 90px;
      }

      .cls-8 {
        letter-spacing: -0.03em;
      }

      .cls-9 {
        letter-spacing: 0em;
      }
    </style>
  </defs>
  <title>NewLogo</title>
  <g id="Layer_2" data-name="Layer 2">
    <g id="Layer_1-2" data-name="Layer 1">
      <g>
        <path class="cls-1" d="M225.34,761.56c1,.58,2,1.12,3,1.63C227.33,762.69,226.32,762.15,225.34,761.56Z"/>
        <path class="cls-1" d="M425.7,272.74a42.52,42.52,0,0,1-42.52,42.52v58.9a54.48,54.48,0,0,1-54.49,54.48h9.7l-83.1,300.81q-.57,2.07-1.29,4c-.24.65-.49,1.28-.75,1.9s-.64,1.47-1,2.17c-.23.48-.47,1-.72,1.42s-.58,1.09-.89,1.61-.61,1-.93,1.52c-.14.22-.28.44-.44.65s-.47.71-.72,1.06-.67.92-1,1.37l-.5.63c-.25.31-.5.62-.76.92l-.16.18c-.37.43-.74.85-1.13,1.25s-.77.81-1.17,1.2l-.31.3c-.33.32-.67.63-1,.94l-.29.25c-.39.35-.79.69-1.19,1s-.83.67-1.26,1l-.35.26c-.41.31-.83.6-1.25.89A42.83,42.83,0,0,1,221,729.45L137.94,428.64h9.69a54.49,54.49,0,0,1-54.49-54.48v-58.9a42.52,42.52,0,1,1,0-85h290a42.52,42.52,0,0,1,42.52,42.52Z"/>
        <path class="cls-1" d="M425.7,272.74a42.52,42.52,0,0,1-42.52,42.52v58.9a54.48,54.48,0,0,1-54.49,54.48h9.7l-83.1,300.81q-.57,2.07-1.29,4c-.24.65-.49,1.28-.75,1.9s-.64,1.47-1,2.17c-.23.48-.47,1-.72,1.42s-.58,1.09-.89,1.61-.61,1-.93,1.52c-.14.22-.28.44-.44.65s-.47.71-.72,1.06-.67.92-1,1.37l-.5.63c-.25.31-.5.62-.76.92l-.16.18c-.37.43-.74.85-1.13,1.25s-.77.81-1.17,1.2l-.31.3c-.33.32-.67.63-1,.94l-.29.25c-.39.35-.79.69-1.19,1s-.83.67-1.26,1l-.35.26c-.41.31-.83.6-1.25.89A42.83,42.83,0,0,1,221,729.45L137.94,428.64h9.69a54.49,54.49,0,0,1-54.49-54.48v-58.9a42.52,42.52,0,1,1,0-85h290a42.52,42.52,0,0,1,42.52,42.52Z"/>
        <path class="cls-2" d="M238.16,754c-.46.32-.93.62-1.41.92s-.95.59-1.44.86-1,.55-1.46.8-.93.48-1.41.71l-.31.14-1.18.53-.35.15c-.43.18-.87.36-1.3.52s-1,.39-1.57.57l-1.57.5c-.52.16-1,.3-1.57.44l-.12,0a48.71,48.71,0,0,1-4.78,1c-.54.08-1.09.15-1.64.21-1,.11-2.06.18-3.09.22a45.3,45.3,0,0,1-20.07-3.75c-.52-.23-1-.47-1.55-.72-1-.51-2-1-3-1.63-.5-.3-1-.6-1.47-.91-1-.63-1.91-1.3-2.83-2-.68-.53-1.36-1.09-2-1.67s-1.3-1.18-1.93-1.81a43.88,43.88,0,0,1-11.16-19.57L87.82,428.64h9.69A54.49,54.49,0,0,1,43,374.16v-58.9a42.52,42.52,0,1,1,0-85H93.14a42.52,42.52,0,0,0,0,85v58.9a54.49,54.49,0,0,0,54.49,54.48h-9.69L221,729.45A42.83,42.83,0,0,0,238.16,754Z"/>
        <path class="cls-1" d="M425.7,272.74a42.52,42.52,0,0,1-42.52,42.52v58.9a54.48,54.48,0,0,1-54.49,54.48h9.7l-83.1,300.81q-.57,2.07-1.29,4c-.24.65-.49,1.28-.75,1.9s-.64,1.47-1,2.17c-.23.48-.47,1-.72,1.42s-.58,1.09-.89,1.61-.61,1-.93,1.52c-.14.22-.28.44-.44.65s-.47.71-.72,1.06-.67.92-1,1.37l-.5.63c-.25.31-.5.62-.76.92l-.16.18c-.37.43-.74.85-1.13,1.25s-.77.81-1.17,1.2l-.31.3c-.33.32-.67.63-1,.94l-.29.25c-.39.35-.79.69-1.19,1s-.83.67-1.26,1l-.35.26c-.41.31-.83.6-1.25.89A42.83,42.83,0,0,1,221,729.45L137.94,428.64h9.69a54.49,54.49,0,0,1-54.49-54.48v-58.9a42.52,42.52,0,1,1,0-85h290a42.52,42.52,0,0,1,42.52,42.52Z"/>
        <path class="cls-3" d="M382.42,154.53A170.08,170.08,0,0,0,43,170.58c0,2.14.06,4.26.13,6.38H43a34.61,34.61,0,0,0-23.29,60.2A42.3,42.3,0,0,1,43,230.22H190.84a22.25,22.25,0,0,1,22.26,22.26v25.6a36.32,36.32,0,0,0,36.33,36.32h0a36.33,36.33,0,0,0,36.33-36.32V238.84a8.62,8.62,0,0,1,8.62-8.62h0a8.61,8.61,0,0,1,8.61,8.62V348.47A29.57,29.57,0,0,0,332.55,378h0a29.56,29.56,0,0,0,29.55-29.56V251.3a21.08,21.08,0,0,1,21.08-21.08h0a42.29,42.29,0,0,1,19.92,4.95,54.23,54.23,0,0,0-20.68-80.64Z"/>
        <path class="cls-4" d="M372.45,111.65A170.07,170.07,0,0,0,85.89,230.22H42.79a42.3,42.3,0,0,0-23.29,6.94A34.61,34.61,0,0,1,42.79,177h.13c-.07-2.12-.13-4.24-.13-6.38a170.1,170.1,0,0,1,329.66-58.93Z"/>
        <text class="cls-5" transform="translate(100.9 445.41)">SO<tspan class="cls-6" x="194.67" y="0">F</tspan><tspan x="275.36" y="0">T</tspan></text>
        <text class="cls-7" transform="translate(98.29 520.92)">SE<tspan class="cls-8" x="116.82" y="0">R</tspan><tspan class="cls-9" x="180.09" y="0">VED</tspan></text>
      </g>
    </g>
  </g>
</svg>
