<svg xmlns="http://www.w3.org/2000/svg" viewBox="0 0 394.3 498.17">
  <defs>
    <style>
      .cls-1 {
        fill: #fff;
        stroke: #fff;
      }

      .cls-1, .cls-2, .cls-3, .cls-4, .cls-5, .cls-6, .cls-8 {
        stroke-miterlimit: 10;
      }

      .cls-2 {
        fill: #fecb37;
      }

      .cls-2, .cls-3 {
        stroke: #fecb37;
      }

      .cls-3 {
        fill: #ffd460;
      }

      .cls-4, .cls-7 {
        fill: #e71d73;
      }

      .cls-4, .cls-5, .cls-7 {
        stroke: #e71d73;
      }

      .cls-5 {
        fill: #e9427d;
      }

      .cls-6 {
        font-size: 75.32px;
      }

      .cls-6, .cls-8 {
        fill: #1d1d1b;
        stroke: #1d1d1b;
        font-family: Graphik-Super, Graphik;
      }

      .cls-7 {
        letter-spacing: 0.02em;
      }

      .cls-8 {
        font-size: 51.74px;
      }

      .cls-9 {
        letter-spacing: -0.03em;
      }
    </style>
  </defs>
  <title>SmallWhiteSplash</title>
  <g id="Layer_2" data-name="Layer 2">
    <g id="Layer_1-2" data-name="Layer 1">
      <path class="cls-1" d="M60.84,266.07c-14,38.38-64,47.73-60.13,75.21,1.84,13.25,13.71,13,28.19,36.73,15.49,25.42,9.71,38.54,18.79,57.73,16.12,34.08,60.09,47,84.56,54.22,51.13,15.05,93.82,5.19,139.05-5.25,46.59-10.75,77.66-17.93,90.2-42,9.17-17.59-1.55-25.09,1.88-73.46,2-28.76,7.65-51.84,11.27-66.47,11.94-48.21,21.1-50.45,18.79-64.72-7.11-44-101.05-64.81-156-77-48.61-10.75-175-38.71-197.31,0C24.34,188.57,77.4,220.76,60.84,266.07Z"/>
      <g>
        <path class="cls-2" d="M147.25,438.06c.56.33,1.14.64,1.74.94C148.39,438.71,147.81,438.4,147.25,438.06Z"/>
        <path class="cls-2" d="M262.43,157A24.45,24.45,0,0,1,238,181.47v33.86a31.32,31.32,0,0,1-31.33,31.32h5.58l-47.77,173c-.22.79-.47,1.56-.75,2.29-.13.38-.28.74-.43,1.09s-.37.85-.57,1.25-.27.55-.41.82-.33.63-.51.92-.35.59-.54.88c-.08.13-.16.25-.25.37s-.27.41-.41.61-.39.53-.59.79l-.29.36-.43.53-.1.1c-.21.25-.42.49-.65.72s-.44.47-.67.69l-.18.18-.58.54a1.07,1.07,0,0,0-.16.14c-.23.2-.46.4-.69.58s-.48.39-.72.57l-.2.15-.72.51a24.66,24.66,0,0,1-9.85-14.09L97,246.65h5.57a31.33,31.33,0,0,1-31.33-31.32V181.47a24.45,24.45,0,0,1,0-48.9H238A24.45,24.45,0,0,1,262.43,157Z"/>
        <path class="cls-2" d="M262.43,157A24.45,24.45,0,0,1,238,181.47v33.86a31.32,31.32,0,0,1-31.33,31.32h5.58l-47.77,173c-.22.79-.47,1.56-.75,2.29-.13.38-.28.74-.43,1.09s-.37.85-.57,1.25-.27.55-.41.82-.33.63-.51.92-.35.59-.54.88c-.08.13-.16.25-.25.37s-.27.41-.41.61-.39.53-.59.79l-.29.36-.43.53-.1.1c-.21.25-.42.49-.65.72s-.44.47-.67.69l-.18.18-.58.54a1.07,1.07,0,0,0-.16.14c-.23.2-.46.4-.69.58s-.48.39-.72.57l-.2.15-.72.51a24.66,24.66,0,0,1-9.85-14.09L97,246.65h5.57a31.33,31.33,0,0,1-31.33-31.32V181.47a24.45,24.45,0,0,1,0-48.9H238A24.45,24.45,0,0,1,262.43,157Z"/>
        <path class="cls-3" d="M154.62,433.69l-.81.53c-.27.17-.55.34-.83.49s-.56.32-.84.46-.54.28-.81.41l-.18.08-.68.31-.2.08-.75.3c-.3.12-.59.23-.9.33l-.9.29-.9.25-.07,0c-.91.23-1.83.41-2.75.55-.31,0-.63.09-.94.12-.6.06-1.19.1-1.78.13a26,26,0,0,1-11.54-2.16l-.89-.41c-.59-.3-1.17-.61-1.74-.94l-.84-.52c-.56-.37-1.1-.75-1.63-1.16s-.78-.63-1.16-1-.75-.68-1.11-1A25.16,25.16,0,0,1,116,419.6l-47.77-173h5.57a31.33,31.33,0,0,1-31.33-31.32V181.47a24.45,24.45,0,1,1,0-48.9H71.24a24.45,24.45,0,0,0,0,48.9v33.86a31.33,31.33,0,0,0,31.33,31.32H97l47.77,173A24.66,24.66,0,0,0,154.62,433.69Z"/>
        <path class="cls-2" d="M262.43,157A24.45,24.45,0,0,1,238,181.47v33.86a31.32,31.32,0,0,1-31.33,31.32h5.58l-47.77,173c-.22.79-.47,1.56-.75,2.29-.13.38-.28.74-.43,1.09s-.37.85-.57,1.25-.27.55-.41.82-.33.63-.51.92-.35.59-.54.88c-.08.13-.16.25-.25.37s-.27.41-.41.61-.39.53-.59.79l-.29.36-.43.53-.1.1c-.21.25-.42.49-.65.72s-.44.47-.67.69l-.18.18-.58.54a1.07,1.07,0,0,0-.16.14c-.23.2-.46.4-.69.58s-.48.39-.72.57l-.2.15-.72.51a24.66,24.66,0,0,1-9.85-14.09L97,246.65h5.57a31.33,31.33,0,0,1-31.33-31.32V181.47a24.45,24.45,0,0,1,0-48.9H238A24.45,24.45,0,0,1,262.43,157Z"/>
        <path class="cls-4" d="M237.55,89.06A97.78,97.78,0,0,0,42.43,98.28c0,1.24,0,2.45.08,3.67h-.08A19.9,19.9,0,0,0,29,136.56a24.37,24.37,0,0,1,13.39-4h85a12.8,12.8,0,0,1,12.79,12.8v14.72A20.88,20.88,0,0,0,161.1,181h0A20.88,20.88,0,0,0,182,160.09V137.53a5,5,0,0,1,5-5h0a5,5,0,0,1,4.95,5v63a17,17,0,0,0,17,17h0a17,17,0,0,0,17-17V144.69A12.12,12.12,0,0,1,238,132.57h0a24.25,24.25,0,0,1,11.45,2.85,31.17,31.17,0,0,0-11.89-46.36Z"/>
        <path class="cls-5" d="M231.82,64.4A97.77,97.77,0,0,0,67.08,132.57H42.3a24.35,24.35,0,0,0-13.39,4A19.9,19.9,0,0,1,42.3,102h.07c0-1.22-.07-2.43-.07-3.67A97.79,97.79,0,0,1,231.82,64.4Z"/>
        <text class="cls-6" transform="translate(75.71 256.29)">SO<tspan class="cls-7" x="111.92" y="0">F</tspan><tspan x="158.31" y="0">T</tspan></text>
        <text class="cls-8" transform="translate(74.21 299.71)">SE<tspan class="cls-9" x="67.16" y="0">R</tspan><tspan x="103.54" y="0">VED</tspan></text>
      </g>
    </g>
  </g>
</svg>
