<svg xmlns="http://www.w3.org/2000/svg" viewBox="0 0 470.86 124.71">
  <defs>
    <style>
      .cls-1 {
        font-size: 65px;
        fill: #808080;
        font-family: PantonDemo-Black, Panton;
        font-weight: 800;
      }

      .cls-2 {
        fill: none;
        stroke: #808080;
        stroke-linecap: round;
        stroke-miterlimit: 10;
        stroke-width: 13px;
      }
    </style>
  </defs>
  <g id="Layer_2" data-name="Layer 2">
    <g id="Layer_1-2" data-name="Layer 1">
      <text class="cls-1" transform="translate(111 107.81) scale(1.16 1)">Techstik</text>
      <path class="cls-2" d="M12.8,113.83,28.46,85.12a14.33,14.33,0,0,1,3.69-4.92c2.48-1.82,5.79-1.84,8.86-2A83.86,83.86,0,0,0,89.06,60.55c7.61-6,14.69-15.5,11.41-24.61-1.67-4.6-5.67-7.93-9.7-10.71C73.73,13.47,53.08,7.36,32.38,6.56c-6.76-.26-14,.16-19.52,4S4.35,22.73,8.36,28.17"/>
      <path class="cls-2" d="M9,29.39c2.28,3,4.79,5.75,7.3,8.53l2.08,2.31,5.73,6.35a40.12,40.12,0,0,0,6.36,6.07"/>
    </g>
  </g>
</svg>
