<svg xmlns="http://www.w3.org/2000/svg" viewBox="0 0 590.33 635.35">
  <defs>
    <style>
      .cls-1 {
        fill: #fff;
        stroke: #fff;
      }

      .cls-1, .cls-2, .cls-3, .cls-4, .cls-5, .cls-6, .cls-8 {
        stroke-miterlimit: 10;
      }

      .cls-2 {
        fill: #fecb37;
      }

      .cls-2, .cls-3 {
        stroke: #fecb37;
      }

      .cls-3 {
        fill: #ffd460;
      }

      .cls-4, .cls-7 {
        fill: #e71d73;
      }

      .cls-4, .cls-5, .cls-7 {
        stroke: #e71d73;
      }

      .cls-5 {
        fill: #e9427d;
      }

      .cls-6 {
        font-size: 75.32px;
      }

      .cls-6, .cls-8 {
        fill: #1d1d1b;
        stroke: #1d1d1b;
        font-family: Graphik-Super, Graphik;
      }

      .cls-7 {
        letter-spacing: 0.02em;
      }

      .cls-8 {
        font-size: 51.74px;
      }

      .cls-9 {
        letter-spacing: -0.03em;
      }
    </style>
  </defs>
  <title>WhiteSplash</title>
  <g id="Layer_2" data-name="Layer 2">
    <g id="Layer_1-2" data-name="Layer 1">
      <path class="cls-1" d="M90.91,222.63c-21,68.31-95.83,85-90.1,133.87,2.77,23.58,20.55,23.13,42.24,65.38C66.26,467.11,57.6,490.47,71.2,524.62c24.17,60.66,90.05,83.69,126.71,96.51,76.62,26.78,140.58,9.24,208.36-9.34,69.81-19.14,116.37-31.91,135.16-74.72,13.74-31.32-2.32-44.66,2.81-130.76,3-51.19,11.47-92.26,16.9-118.3,17.89-85.81,31.6-89.8,28.15-115.19-10.65-78.36-151.42-115.35-233.7-137C282.76,16.7,93.4-33.07,59.94,35.84,36.22,84.7,115.73,142,90.91,222.63Z"/>
      <g>
        <path class="cls-2" d="M302.2,536c.57.34,1.15.65,1.74.94C303.35,536.63,302.77,536.32,302.2,536Z"/>
        <path class="cls-2" d="M417.39,255a24.46,24.46,0,0,1-24.45,24.44v33.87a31.32,31.32,0,0,1-31.32,31.32h5.57L319.42,517.52c-.22.8-.47,1.56-.74,2.3-.14.37-.28.73-.43,1.09s-.37.85-.57,1.25-.27.55-.42.81-.33.63-.51.93-.35.59-.53.87a3.19,3.19,0,0,1-.26.38l-.41.61c-.19.27-.39.53-.59.78s-.19.25-.28.37l-.44.53-.09.1c-.22.25-.43.49-.65.72l-.68.69c-.06.06-.12.11-.17.17l-.58.54-.17.14c-.23.21-.46.4-.68.59s-.48.38-.73.56a1,1,0,0,1-.2.15l-.72.52a24.65,24.65,0,0,1-9.85-14.1L252,344.58h5.58a31.33,31.33,0,0,1-31.33-31.32V279.39a24.45,24.45,0,1,1,0-48.89H392.94A24.46,24.46,0,0,1,417.39,255Z"/>
        <path class="cls-2" d="M417.39,255a24.46,24.46,0,0,1-24.45,24.44v33.87a31.32,31.32,0,0,1-31.32,31.32h5.57L319.42,517.52c-.22.8-.47,1.56-.74,2.3-.14.37-.28.73-.43,1.09s-.37.85-.57,1.25-.27.55-.42.81-.33.63-.51.93-.35.59-.53.87a3.19,3.19,0,0,1-.26.38l-.41.61c-.19.27-.39.53-.59.78s-.19.25-.28.37l-.44.53-.09.1c-.22.25-.43.49-.65.72l-.68.69c-.06.06-.12.11-.17.17l-.58.54-.17.14c-.23.21-.46.4-.68.59s-.48.38-.73.56a1,1,0,0,1-.2.15l-.72.52a24.65,24.65,0,0,1-9.85-14.1L252,344.58h5.58a31.33,31.33,0,0,1-31.33-31.32V279.39a24.45,24.45,0,1,1,0-48.89H392.94A24.46,24.46,0,0,1,417.39,255Z"/>
        <path class="cls-3" d="M309.57,531.62c-.26.18-.53.35-.81.52s-.55.34-.83.5-.56.32-.84.46l-.81.41-.18.08-.67.3-.21.09-.74.3-.91.33-.9.28-.9.26h-.07a25.73,25.73,0,0,1-2.75.55l-.94.13c-.59.06-1.18.1-1.78.12a26.2,26.2,0,0,1-11.54-2.15l-.89-.42c-.59-.29-1.17-.6-1.73-.94l-.85-.52c-.56-.36-1.1-.75-1.62-1.15s-.79-.63-1.17-1-.74-.68-1.11-1a25.29,25.29,0,0,1-6.41-11.26L223.14,344.58h5.57a31.33,31.33,0,0,1-31.33-31.32V279.39a24.45,24.45,0,0,1,0-48.89H226.2a24.45,24.45,0,0,0,0,48.89v33.87a31.33,31.33,0,0,0,31.33,31.32H252l47.77,172.94A24.65,24.65,0,0,0,309.57,531.62Z"/>
        <path class="cls-2" d="M417.39,255a24.46,24.46,0,0,1-24.45,24.44v33.87a31.32,31.32,0,0,1-31.32,31.32h5.57L319.42,517.52c-.22.8-.47,1.56-.74,2.3-.14.37-.28.73-.43,1.09s-.37.85-.57,1.25-.27.55-.42.81-.33.63-.51.93-.35.59-.53.87a3.19,3.19,0,0,1-.26.38l-.41.61c-.19.27-.39.53-.59.78s-.19.25-.28.37l-.44.53-.09.1c-.22.25-.43.49-.65.72l-.68.69c-.06.06-.12.11-.17.17l-.58.54-.17.14c-.23.21-.46.4-.68.59s-.48.38-.73.56a1,1,0,0,1-.2.15l-.72.52a24.65,24.65,0,0,1-9.85-14.1L252,344.58h5.58a31.33,31.33,0,0,1-31.33-31.32V279.39a24.45,24.45,0,1,1,0-48.89H392.94A24.46,24.46,0,0,1,417.39,255Z"/>
        <path class="cls-4" d="M392.51,187a97.78,97.78,0,0,0-195.13,9.23c0,1.23,0,2.45.08,3.67h-.08A19.89,19.89,0,0,0,184,234.49a24.31,24.31,0,0,1,13.38-4h85a12.79,12.79,0,0,1,12.79,12.79V258a20.89,20.89,0,0,0,20.89,20.89h0A20.88,20.88,0,0,0,336.93,258V235.45a5,5,0,0,1,5-4.95h0a5,5,0,0,1,4.95,4.95v63a17,17,0,0,0,17,17h0a17,17,0,0,0,17-17V242.62a12.12,12.12,0,0,1,12.12-12.12h0a24.25,24.25,0,0,1,11.45,2.85A31.18,31.18,0,0,0,392.51,187Z"/>
        <path class="cls-5" d="M386.77,162.33A97.76,97.76,0,0,0,222,230.5H197.25a24.37,24.37,0,0,0-13.39,4,19.9,19.9,0,0,1,13.39-34.61h.08c0-1.22-.08-2.44-.08-3.67a97.79,97.79,0,0,1,189.52-33.88Z"/>
        <text class="cls-6" transform="translate(230.66 354.22)">SO<tspan class="cls-7" x="111.92" y="0">F</tspan><tspan x="158.31" y="0">T</tspan></text>
        <text class="cls-8" transform="translate(229.16 397.63)">SE<tspan class="cls-9" x="67.16" y="0">R</tspan><tspan x="103.54" y="0">VED</tspan></text>
      </g>
    </g>
  </g>
</svg>
